<?xml version="1.0" standalone="no"?>
<!DOCTYPE svg PUBLIC "-//W3C//DTD SVG 20010904//EN"
 "http://www.w3.org/TR/2001/REC-SVG-20010904/DTD/svg10.dtd">
<svg version="1.0" xmlns="http://www.w3.org/2000/svg"
 width="450.000000pt" height="233.000000pt" viewBox="0 0 450.000000 233.000000"
 preserveAspectRatio="xMidYMid meet">
<metadata>
Created by potrace 1.10, written by Peter Selinger 2001-2011
</metadata>
<g transform="translate(0.000000,233.000000) scale(0.100000,-0.100000)"
fill="#000000" stroke="none">
<path d="M2040 2160 c-41 -3 -91 -14 -109 -24 -19 -10 -211 -195 -427 -410
-306 -305 -397 -402 -415 -441 -23 -48 -24 -62 -27 -291 l-3 -242 27 -21 c24
-19 39 -21 164 -21 219 0 159 -43 719 514 382 380 488 491 507 531 22 46 24
63 24 203 0 85 -5 162 -10 172 -6 11 -27 24 -48 30 -40 11 -279 11 -402 0z"/>
<path d="M3045 2154 c-46 -14 -86 -52 -506 -472 -303 -303 -465 -472 -480
-502 -22 -42 -24 -58 -27 -232 l-4 -187 26 -26 25 -25 229 0 c225 0 229 0 280
26 74 37 743 718 787 801 l30 57 0 267 c0 244 -2 270 -18 286 -25 25 -267 30
-342 7z"/>
</g>
</svg>
